<?xml version="1.0"?><svg width="1208" height="686.6666666666666" xmlns="http://www.w3.org/2000/svg">
 <title>Hospital Bed</title>
 <metadata id="metadata7">image/svg+xml</metadata>
 <defs>
  <linearGradient spreadMethod="pad" id="svg_1">
   <stop offset="0" stop-color="#9456ff"/>
   <stop offset="1" stop-color="#6ba900"/>
  </linearGradient>
  <linearGradient y2="0" x2="1" id="svg_2">
   <stop offset="0.542101" stop-color="#7f00ff"/>
   <stop offset="1" stop-color="#80ff00"/>
  </linearGradient>
  <linearGradient id="svg_3">
   <stop offset="0" stop-color="#333333"/>
   <stop offset="1" stop-color="#cccccc"/>
  </linearGradient>
  <linearGradient y2="0" x2="1" y1="0" x1="0" id="svg_4">
   <stop offset="0" stop-color="#333333"/>
   <stop offset="0.495226" stop-color="#cccccc"/>
  </linearGradient>
  <linearGradient id="svg_5">
   <stop offset="0" stop-color="#cccccc"/>
   <stop offset="1" stop-color="#333333"/>
  </linearGradient>
  <linearGradient y2="0" x2="1" y1="0" x1="0" id="svg_6">
   <stop offset="0" stop-color="#333333"/>
   <stop offset="0.451823" stop-color="#cccccc"/>
  </linearGradient>
  <linearGradient y2="0" x2="1" y1="0" x1="0" id="svg_7">
   <stop offset="0" stop-color="#333333"/>
   <stop offset="0.260851" stop-color="#cccccc"/>
  </linearGradient>
  <linearGradient y2="0" x2="1" y1="0" x1="0" id="svg_8">
   <stop offset="0" stop-color="#333333"/>
   <stop offset="0" stop-color="#cccccc"/>
  </linearGradient>
 </defs>
 <g>
  <title>Layer 1</title>
  <path fill="#aae2ff" fill-rule="evenodd" stroke="#000000" stroke-width="3" stroke-miterlimit="4" id="path2197" d="m224.008896,376.163208l-189.844406,-53.109375c10.159611,-124.848618 101.530716,-163.011276 142.383301,-94.404449l106.218048,-5.141663l-58.756943,152.655487z"/>
  <path fill="#aae2ff" fill-rule="evenodd" stroke="#698b9e" stroke-width="3" stroke-miterlimit="4" id="path2189" d="m748.889404,529.780029l-445.836243,-135.55835c-101.66185,-126.865906 220.522583,-247.787476 259.679993,-246.112106l412.980408,59.990707c373.143494,123.101379 -38.158325,252.825256 -226.824158,321.679749z"/>
  <path fill="#aae2ff" fill-rule="evenodd" stroke="#000000" stroke-width="3" stroke-miterlimit="4" id="path2187" d="m373.134552,198.320068l-245.542564,14.120651c-1.176025,-39.014374 213.546043,-164.311539 408.886528,-68.527725l-163.343964,54.407074z"/>
  <path fill="#eeeeec" fill-rule="evenodd" stroke="#000000" stroke-width="3" stroke-miterlimit="4" id="path2193" d="m488.761505,129.046616c11.410461,-8.993393 114.538544,20.326126 72.675385,30.402222l-179.12265,82.193527c-80.803955,37.078308 -94.010101,101.658936 -81.542542,149.799469l-98.709335,-22.189117c-10.837891,-10.912903 -4.01001,-89.386017 37.430847,-124.698715c63.830063,-54.391068 239.136887,-118.576134 249.268295,-115.507385z"/>
  <path fill="#2e3436" fill-opacity="0.941176" fill-rule="evenodd" stroke-width="3" stroke-miterlimit="4" id="path1308" d="m208.049652,154.149887c-18.277451,-7.128433 1.134415,-103.749348 -7.558258,-101.335136l-39.465958,10.960819l1.687729,105.785694l-13.697617,7.246933c-1.880402,-72.781975 0.969177,-90.258667 0.747345,-108.135796c-26.010933,5.037315 -40.392906,17.066719 -40.70623,25.737259l-5.055382,139.892204c0.618645,-36.50676 -8.823631,19.01709 -14.301659,-9.49234c-4.83036,-25.138733 4.970284,-133.713974 2.697563,-132.564171c-26.290939,13.300987 -44.151806,29.333176 -45.587505,48.411552l-5.356232,170.566635l705.916546,200.227386l4.668945,-124.646851c-9.711975,-35.577179 6.453735,-67.662872 36.347717,-99.279449c84.400391,-44.40976 180.877502,-64.666092 277.003723,-85.624237c39.359619,-7.493317 61.850708,3.756073 65.065063,36.424118l-7.179321,258.40181l-22.164917,7.806274l2.660645,-93.078796l-327.185486,136.734314l-2.55835,91.69635l-27.66217,-2.484863l-4.063782,-93.800354l-696.887962,-197.176941l-6.040081,110.051514c-0.515598,13.843262 -10.25165,18.466095 -34.835919,8.240662l4.60009,-335.845032c25.048699,-91.823067 297.60885,-116.738215 323.964776,-123.348176c66.36438,0.66744 43.062866,80.212747 55.059387,106.25187l-32.321777,-6.872711c7.74939,-43.05476 6.092133,-99.147209 -64.683075,-74.984028l2.097351,93.612698l-14.628357,8.871155l-7.701996,-97.518452l-53.607544,12.120529l-0.331879,110.632496l-8.935425,-3.48494zm638.80368,140.768112l-2.275818,194.316986l-70.314392,28.397339l4.750671,-132.705231c7.283813,-46.172333 16.401978,-75.948578 67.839539,-90.009094zm217.905823,-67.533783l-58.671143,16.622437l-4.78241,179.930206l59.574158,-22.940704l3.879395,-173.611938zm-143.104858,38.266357l-59.717285,19.828522l-7.551514,197.351166l63.733521,-26.889282l3.535278,-190.290405zm73.855103,-19.512451l-0.552673,180.241058l-62.618896,26.640625l2.647095,-191.709534l60.524475,-15.17215zm118.46521,8.752914l-5.126465,124.173416l-34.004517,15.022644l2.120483,-171.910965c15.519531,4.28389 29.200439,1.447784 37.010498,32.714905z"/>
  <path fill="#b2b2b2" fill-rule="evenodd" stroke="#ffffff" stroke-width="3" stroke-miterlimit="4" id="path2191" d="m235.60228,243.705566c-54.891647,0.492126 -110.466362,22.371948 -161.34745,-13.230957l12.049637,-34.156311c134.164268,-24.768723 209.072365,55.036362 149.297813,47.387268z"/>
  <path fill="#efefef" fill-rule="evenodd" stroke="#ffffff" stroke-width="3" stroke-miterlimit="4" id="path2185" d="m258.470001,240.654007c-27.886002,-49.873001 -107.947998,-57.042007 -178.124298,-45.751007c76.867294,-39.106995 63.671295,-48.634995 204.969299,-96.318604c49.678986,-29.464294 108.372986,-1.646599 153.931,35.442596c0,37.776001 -137.360992,66.347 -180.776001,106.627014z"/>
 </g>
</svg>