<?xml version="1.0"?><svg width="1208" height="686.6666666666666" xmlns="http://www.w3.org/2000/svg">
 <metadata id="metadata7">image/svg+xml</metadata>

 <g>
  <title>Layer 1</title>
  <path fill="#ff7f00" fill-rule="evenodd" stroke="#bf005f" stroke-width="3" stroke-miterlimit="4" id="path2197" d="m224.008896,376.163208l-189.844406,-53.109375c10.159611,-124.848618 101.530716,-163.011276 142.383301,-94.404449l106.218048,-5.141663l-58.756943,152.655487z"/>
  <path fill="#ff7f00" fill-rule="evenodd" stroke="#bf5f00" stroke-width="3" stroke-miterlimit="4" id="path2189" d="m748.889404,529.780029l-445.836243,-135.55835c-101.66185,-126.865906 220.522583,-247.787476 259.679993,-246.112106l412.980408,59.990707c373.143494,123.101379 -38.158325,252.825256 -226.824158,321.679749z"/>
  <path fill="#ff7f00" fill-rule="evenodd" stroke="#bf5f00" stroke-width="3" stroke-miterlimit="4" id="path2187" d="m373.13501,198.320007l-245.543007,14.120987c-1.176003,-39.014999 213.545998,-164.311794 408.887001,-68.528l-163.343994,54.407013l0,0l0,0z"/>
  <path fill="#eeeeec" fill-rule="evenodd" stroke="#bf5f00" stroke-width="3" stroke-miterlimit="4" id="path2193" d="m496.761505,127.046608c11.410461,-8.993385 114.538544,20.326134 72.675385,30.402229l-179.12265,82.193527c-80.803955,37.078308 -94.010101,101.658936 -81.542542,149.799469l-98.709335,-22.189117c-10.837891,-10.912903 -4.01001,-89.386017 37.430847,-124.698715c63.830063,-54.391068 239.136887,-118.576134 249.268295,-115.507393z"/>
  <path fill="#2e3436" fill-opacity="0.941176" fill-rule="evenodd" stroke-width="3" stroke-miterlimit="4" id="path1308" d="m208.050003,154.149994c-18.278,-7.128998 1.134003,-103.749493 -7.559006,-101.335194l-39.466003,10.9608l1.688004,105.785404l-13.696991,7.246994c-1.881012,-72.781998 0.968994,-90.258499 0.746994,-108.135597c-26.011002,5.0373 -40.392998,17.066696 -40.706001,25.737297l-5.056,139.892303c0.619003,-36.507004 -8.823303,19.016998 -14.301399,-9.492004c-4.830299,-25.138992 4.970299,-133.7145 2.697601,-132.564697c-26.291,13.300697 -44.151802,29.333702 -45.587502,48.411697l-5.3563,170.567001l705.916595,200.22699l4.669006,-124.647003c-9.711975,-35.576996 6.453979,-67.662994 36.348022,-99.278992c84.399963,-44.409988 180.876953,-64.666 277.002991,-85.625c39.359985,-7.492996 61.849976,3.756012 65.069946,36.424011l-7.179932,258.402008l-22.170044,7.806976l2.660034,-93.078979l-327.184021,136.733978l-2.557983,91.695984l-27.661987,-2.483948l-4.064026,-93.801025l-696.887901,-197.177002l-6.040001,110.052002c-0.515598,13.842987 -10.251699,18.466003 -34.83597,8.23999l4.60009,-335.844986c25.048681,-91.822605 297.608789,-116.737803 323.964777,-123.347754c66.364014,0.66744 43.062988,80.212751 55.05899,106.251753l-32.320984,-6.873001c7.748993,-43.054302 6.09201,-99.146801 -64.683014,-74.983601l2.097015,93.612598l-14.627991,8.870995l-7.702026,-97.518192l-53.607986,12.120499l-0.332001,110.632694l-8.934998,-3.485001l0,0l0,0zm638.803024,140.768005l-2.276001,194.316986l-70.314026,28.397034l4.750977,-132.705017c7.283997,-46.171997 16.402039,-75.947998 67.83905,-90.009003zm217.906982,-67.533997l-58.669983,16.623001l-4.780029,179.930008l59.570007,-22.94101l3.880005,-173.612zm-143.106018,38.266998l-59.71698,19.828003l-7.552002,197.350983l63.734009,-26.888977l3.534973,-190.290009zm73.85498,-19.513l-0.552002,180.240997l-62.618958,26.640991l2.646973,-191.709991l60.523987,-15.171997zm118.460999,8.753006l-5.119995,124.172989l-34.01001,15.02301l2.119995,-171.911011c15.52002,4.284012 29.200073,1.447998 37.01001,32.715012z"/>
  <path fill="#eeeeec" fill-rule="evenodd" stroke="#bf5f00" stroke-width="3" stroke-miterlimit="4" id="path2191" d="m234.602005,243.705994c-54.891006,0.492004 -110.466003,22.372009 -161.347206,-13.230988l12.049698,-34.157013c134.164497,-24.76799 209.072517,55.037003 149.297508,47.388l0,0z"/>
  <path fill="#eeeeec" fill-rule="evenodd" stroke="#bf5f00" stroke-width="3" stroke-miterlimit="4" id="path2185" d="m254.469955,243.653885c-27.88562,-49.87294 -107.948105,-57.042343 -178.124268,-45.750931c76.866898,-39.107117 63.671249,-48.634552 204.969193,-96.318565c49.679047,-29.46431 108.372894,-1.646568 153.930847,35.442848c0,37.776016 -137.360992,66.347168 -180.775772,106.626648z"/>
 </g>
</svg>