<?xml version="1.0" standalone="no"?>
<!DOCTYPE svg PUBLIC "-//W3C//DTD SVG 20010904//EN"
 "http://www.w3.org/TR/2001/REC-SVG-20010904/DTD/svg10.dtd">
<svg version="1.0" xmlns="http://www.w3.org/2000/svg"
 width="600.000000pt" height="341.000000pt" viewBox="0 0 600.000000 341.000000"
 preserveAspectRatio="xMidYMid meet">

<g transform="translate(0.000000,341.000000) scale(0.100000,-0.100000)"
fill="#000000" stroke="none">
<path d="M0 1705 l0 -1705 3000 0 3000 0 0 1705 0 1705 -3000 0 -3000 0 0
-1705z m1907 1194 c143 -44 383 -191 383 -235 0 -34 -88 -108 -190 -159 -51
-26 -193 -90 -314 -142 -226 -97 -318 -143 -393 -196 l-43 -30 -22 29 c-128
166 -408 251 -739 225 -63 -5 -115 -8 -117 -7 -1 2 22 16 50 31 29 16 104 60
167 98 207 124 363 195 656 299 77 27 160 59 185 71 105 50 244 56 377 16z
m370 -90 c95 -12 293 -58 293 -67 -1 -4 -55 -25 -122 -47 -66 -22 -124 -41
-129 -43 -5 -2 -9 6 -9 19 0 24 -4 28 -108 99 -74 50 -74 50 -39 50 20 0 71
-5 114 -11z m582 -105 c92 -24 192 -69 198 -89 1 -5 -234 -118 -523 -250 -289
-132 -560 -262 -602 -289 -228 -145 -352 -389 -322 -634 5 -37 7 -68 6 -70 -2
-1 -119 30 -261 70 l-258 73 6 105 c7 129 25 198 82 315 51 105 109 175 145
178 14 1 44 16 67 33 71 54 179 109 403 204 271 116 397 180 458 235 37 33 72
52 153 80 235 83 270 86 448 39z m-2020 -334 c116 -12 253 -49 326 -88 27 -15
77 -54 110 -87 l60 -60 -50 -2 c-27 -2 -157 -13 -289 -25 -200 -18 -253 -20
-325 -11 -89 12 -209 51 -249 81 l-23 18 27 74 c14 41 30 79 34 83 20 22 235
31 379 17z m-456 -169 c-4 -16 8 -26 64 -55 107 -53 180 -69 318 -69 66 0 184
8 262 17 78 9 167 16 198 16 l57 0 -35 -41 c-88 -102 -154 -286 -164 -455 l-6
-100 -426 121 -426 121 1 90 c0 75 5 101 31 167 44 111 145 262 126 188z"/>
</g>
</svg>
